<svg id="Layer_1" data-name="Layer 1" xmlns="http://www.w3.org/2000/svg" viewBox="0 0 255.63842 240.6807">
  <g>
    <path d="M84.73935,273.94372l-3.16027-5.40586a170.02086,170.02086,0,0,0,31.19814,9.78066c.84027.16408,1.68685.30186,2.535.41984,4.282.59557,8.18419,1.166,11.8905,4.40135,5.93379,5.17986,13.79526,7.00922,21.57259,7.17838,5.04877.1098,9.73495,5.18875,10.91645,9.82946.42376,1.66457-.49643,2.83709-1.51153,3.89806-1.95014,2.03828-3.88943,4.10659-6.02208,5.94769-1.92631,1.663-4.10463,3.0394-6.585,4.84256.408-2.56366-.75035-2.95372-2.62561-2.8767-16.26157.66786-32.2043,2.93972-47.4311,8.9667a15.37851,15.37851,0,0,1-1.75275.47136c-2.824-2.89138-7.08367-3.61672-9.88729-6.32175-.03271-1.46366,2.41515-1.54174,1.58979-3.29185q.08537-.31634.14611-.6387,2.57468-1.12712,5.14992-2.25338a8.50661,8.50661,0,0,0,3.68672-1.48019,22.59541,22.59541,0,0,0,6.01521-2.164L113.18758,301.62l9.9441-1.84122-1.99753-1.28841c-1.0063-1.15187-2.84825-1.42058-3.45042-3.13454a4.69154,4.69154,0,0,1,2.69756-1.19637c8.62375.051,17.25394-.29127,25.90209.50645-8.78526-1.68014-17.26465-4.35944-25.90313-6.39832-4.76548-3.1842-10.69752-3.65876-15.575-6.58277q-3.41151-1.69407-6.82322-3.38771c-4.79664-2.37545-4.91456-2.308-5.10149,2.8879C89.81183,279.163,88.20582,275.52667,84.73935,273.94372Z" transform="translate(-17.38579 -268.20089)" fill="#e9501e"/>
    <path d="M61.75533,496.42189c-1.37359,1.04379-1.1692,3.16216-3.25522,4.42079a140.58641,140.58641,0,0,0-1.886-14.904c-1.80177-8.5541-3.82974-17.02958-7.85093-24.889-.38147-.74558-.8627-1.28172-.56032-2.31291,2.88772-9.8482.10122-18.93828-3.9371-27.84811-1.88562-4.16029-.08591-10.882,3.63933-13.4761,1.43114-.99661,3.10175-.64672,4.63207-.29341a66.34637,66.34637,0,0,1,7.04533,2.00178c2.41222.84663,4.73913,1.93193,7.553,3.09949-2.44085,1.49424-1.23184,2.875-.34714,4.37894,4.40507,7.48856,9.89983,14.20272,15.15372,21.089-2.12213.92622-1.48236,2.8246-1.62076,4.46481-.27625,3.27379.6508,6.67545-.58922,9.917-2.56932-.51144-2.901-3.46245-5.30831-3.43088q-.96028-.71531-1.92052-1.43087l-6.82523-7.853-.47962.26129L66.3867,454.337l-1.37129,2.078c-2.28662-.88161-2.79631-2.53359-3.98508-3.5104-4.26985-6.62955-7.6998-13.72015-11.39995-20.69572,3.017,7.71238,4.55588,15.798,6.9571,23.629.3567,6.16672,2.25643,12.149,2.23608,18.36077.246,3.3639.73426,6.73268.66488,10.09019-.0603,2.91824.4407,4.887,3.8872,4.76545C62.84012,491.51117,61.20742,493.73112,61.75533,496.42189Z" transform="translate(-17.38579 -268.20089)" fill="#e9501e"/>
    <path d="M268.09247,404.28932c1.52866-.17942,2.99557-1.14095,4.93174-.19043-4.24629,3.40805-8.41566,6.68557-12.50811,10.05478a86.63522,86.63522,0,0,0-16.94028,18.27417c-.54633.80768-.96558,1.75107-2.04884,1.9764-9.76218,2.03062-15.812,8.869-21.41506,16.26054-3.369,4.44431-8.0563,6.14459-13.16317,4.79766a4.02156,4.02156,0,0,1-3.14653-2.6359c-2.00581-5.27835-2.86242-10.75641-3.45056-16.88449,1.85039,1.46477,2.69114.9316,3.606-.709,3.44668-6.18065,6.2162-12.66993,9.20389-19.06056.93517,1.401,1.984,1.2398,3.37612.52653,2.58569-1.32479,5.35244-2.3057,7.9224-3.65652,1.59455-.83808,2.47732-.216,3.3806.90014-.93234,3.30728-1.86467,6.61457-2.96739,10.52611,1.27477-1.11481,2.07577-1.8153,2.87675-2.51579,1.17507.2878,2.2421-1.10182,3.52886-.19709.75474,1.81086-1.24381,3.00624-1.15076,4.67288-3.57549,6.33648-7.48846,12.47156-11.43817,18.62048,5.17333-5.39732,10.20708-10.856,15.86988-15.6953l15.60342-12.46759c3.20683-2.18515,6.8129-3.83758,9.57014-6.44493-1.01911-2.21917-3.19754-1.866-4.3764-3.07295l10.525-2.925Q266.98729,404.36643,268.09247,404.28932Z" transform="translate(-17.38579 -268.20089)" fill="#e9501e"/>
    <path d="M85.46588,311.78349c.82568,1.75024-1.62218,1.82832-1.58947,3.292,2.80362,2.705,7.06327,3.43037,9.88729,6.32175a120.95829,120.95829,0,0,0-26.57784,16.07161c-1.00911.82883-2.08235,1.581-3.12588,2.3687-3.52021-3.73026-9.26-4.11425-12.55985-8.178q.71912-1.0457,1.43982-2.09127,6.43012-6.66942,12.86029-13.33871l.22535.02884.20642-.09413c3.22811-2.3349,5.92323-5.432,10.44231-7.38168-3.22212,3.92338-5.82422,7.24547-7.28843,11.9547,4.3523-2.75641,8.04-5.09194,11.72765-7.42763Q83.28959,312.54641,85.46588,311.78349Z" transform="translate(-17.38579 -268.20089)" fill="#e8451e"/>
    <path d="M199.04923,310.31344c-15.66231-19.32857-35.2899-32.62614-59.75446-38.56459a5.36312,5.36312,0,0,1-2.78022-1.30071l6.89428.31282c.31294.18434.61194.49936.94121.53428,16.16222,1.7147,30.545,8.09805,44.17164,16.47941a108.10178,108.10178,0,0,1,20.845,16.6977c.17343,1.59322-.29221,2.51358-1.97363,3.30858C204.70054,309.054,201.75721,309.25666,199.04923,310.31344Z" transform="translate(-17.38579 -268.20089)" fill="#e52524"/>
    <path d="M199.04923,310.31344c2.708-1.05678,5.65131-1.25945,8.34378-2.53251,1.68142-.795,2.14706-1.71536,1.9737-3.30875q2.95311,2.56826,5.90654,5.13672c1.8498,3.6659,5.13376,6.23344,7.44557,9.54535q3.31382,5.17025,6.62766,10.34046c-.07038,2.08482,2.7926,3.40576,1.53822,5.7989a13.95409,13.95409,0,0,0-7.44985-5.39985c1.27532,2.31308,2.13428,3.871,2.99324,5.42889a6.50945,6.50945,0,0,1-1.22665.69006c-3.29227,1.01617-6.596,1.99592-9.89615,2.98706A132.69064,132.69064,0,0,0,199.04923,310.31344Z" transform="translate(-17.38579 -268.20089)" fill="#e52d20"/>
    <path d="M105.58147,468.22848A114.72062,114.72062,0,0,0,128.711,479.34829c.68854.24138,1.34817.56369,2.02127.84842-1.135,1.7866-.63414,3.77919-.70487,5.69206-.12532,3.38757,1.18125,7.47281-4.2414,8.1657-.09732.01242-.14136.43453-.21035.66593q-.39319.02661-.78628.05225a34.36585,34.36585,0,0,0-13.26923-2.906l-2.27668-.72946q-.4371-.37428-.8732-.74883c-3.2081-2.1171-7.3088-2.41364-10.79032-5.02936,4.45124-.55044,8.57078,1.8171,12.65526-.53254-3.14086-1.6995-6.13422-3.31921-9.1276-4.93889,2.34524-.49322,3.16361-1.7807,3.04684-4.263C104.03751,473.13869,103.079,470.29254,105.58147,468.22848Z" transform="translate(-17.38579 -268.20089)" fill="#e8441e"/>
    <path d="M181.97323,483.20845c20.8515-3.07776,36.9236-11.77477,61.866-33.707a59.18337,59.18337,0,0,1-7.76017,12.155c-.96235-.76126-1.32147.24645-1.72913.68026a118.87545,118.87545,0,0,1-29.9148,22.97979,92.6862,92.6862,0,0,1-21.01288,8.73316c-1.26739-1.18749-.59085-2.72534-.742-4.10984C182.43534,487.69713,183.23752,485.34732,181.97323,483.20845Z" transform="translate(-17.38579 -268.20089)" fill="#e52524"/>
    <path d="M28.554,443.35239A114.0678,114.0678,0,0,1,17.8752,403.9159c-1.76172-18.56679,1.30553-36.28818,8.02756-53.53568a16.638,16.638,0,0,1,1.01474-1.87594c1.72428,2.71348,1.436,5.74661,1.54223,8.75521.07031,1.99068-.77426,4.13.68575,5.97458-1.65054,6.0855-4.06322,11.98992-4.4478,18.37622-1.47953,3.41259-1.19654,7.06971-1.59715,10.64638a115.60726,115.60726,0,0,0,3.19357,42.57308C27.03825,437.66949,29.19293,440.1624,28.554,443.35239Z" transform="translate(-17.38579 -268.20089)" fill="#e9511e"/>
    <path d="M183.42227,494.04971a92.6862,92.6862,0,0,0,21.01288-8.73316A118.87545,118.87545,0,0,0,234.35,462.33676c.40766-.43381.76678-1.44152,1.72913-.68026-17.96473,24.03268-41.84843,38.83038-71.3354,44.89029a18.63413,18.63413,0,0,1-5.80988.77187c-.18995-.99751-2.08473-.42163-1.758-2.06188,2.38063-1.32191,4.8858-2.633,7.28621-4.111.50152-.30877,2.57275-.87823.40352-1.967.49722-.67934,1.25936-.611,1.98108-.7576C172.456,497.28218,178.24591,496.80141,183.42227,494.04971Z" transform="translate(-17.38579 -268.20089)" fill="#e9501e"/>
    <path d="M215.27286,309.609q-2.953-2.56848-5.90615-5.1368a108.10994,108.10994,0,0,0-20.845-16.69753c-13.62663-8.38136-28.00942-14.76471-44.17164-16.47941-.32927-.03492-.62827-.34994-.94121-.53428,15.43929.26494,29.934,4.32634,43.77778,10.85352a112.10748,112.10748,0,0,1,42.26693,33.854c-1.77763.22831-3.25347-.5775-4.83526-1.21392C221.37094,312.948,218.83122,310.2706,215.27286,309.609Z" transform="translate(-17.38579 -268.20089)" fill="#e9501e"/>
    <path d="M51.50092,331.65965c3.2991,4.06363,9.03885,4.44762,12.55906,8.17789a141.13474,141.13474,0,0,0-18.53311,21.96109c-3.33317-4.053-8.59009-5.15627-12.64819-8.09809q2.20393-4.06053,4.40822-8.12085c1.55859-3.28092,3.40048-5.59579,5.24243-6.58868-.62607,3.1519-1.88757,6.22336-1.28249,10.31111,3.14063-5.79481,5.9467-10.97231,8.75278-16.1498Z" transform="translate(-17.38579 -268.20089)" fill="#e73b1f"/>
    <path d="M28.554,443.35239c.63892-3.19-1.51576-5.6829-2.25991-8.52264a115.60726,115.60726,0,0,1-3.19357-42.57308c.40061-3.57667.11762-7.23379,1.59724-10.64633,3.43948,1.09443,6.69565,2.50282,9.16884,5.25288-2.41346,9.15731-4.5379,18.33073-4.87934,27.88076a105.316,105.316,0,0,0,4.2638,34.91206c.20608.67338.28377,1.3853.61212,3.04326A38.3748,38.3748,0,0,1,28.554,443.35239Z" transform="translate(-17.38579 -268.20089)" fill="#e52623"/>
    <path d="M105.58147,468.22848c-2.50246,2.06406-1.544,4.91021-1.427,7.3961.11677,2.48233-.7016,3.76981-3.04692,4.26419q-.77253-.22419-1.54459-.4511c-1.40482-1.1-2.64685-2.43207-4.40218-3.03252a7.764,7.764,0,0,0-3.63292-2.19672c-1.31823-1.98531-3.42092-3.04417-5.28082-4.38977q-2.21413-1.86-4.4283-3.71994-3.69749-3.72983-7.395-7.45966c2.40728-.03141,2.739,2.9196,5.3083,3.431,1.24-3.24157.313-6.64323.58922-9.917.1384-1.64021-.50137-3.53859,1.62076-4.46481C88.94488,455.52579,97.161,461.99262,105.58147,468.22848Z" transform="translate(-17.38579 -268.20089)" fill="#e84b1e"/>
    <path d="M215.30529,338.99977c3.30014-.99114,6.60388-1.97089,9.89615-2.98706a6.50922,6.50922,0,0,0,1.22667-.69008q3.60762,5.917,7.21522,11.834l.8837,2.75281c-.36321,3.47447,2.29219,6.24191,2.29764,9.63-4.87376,1.86331-10.25177,2.59086-14.0459,6.38713-1.13922-.67023-.49855-1.95013-1.38538-3.07793l-.26159,2.09294c-1.1887-6.00425-1.69726-12.13763-3.56879-18.01392C216.72942,344.31035,216.053,341.64391,215.30529,338.99977Z" transform="translate(-17.38579 -268.20089)" fill="#e73c1f"/>
    <path d="M183.42227,494.04971c-5.17636,2.7517-10.96625,3.23247-16.57566,4.37152-.72172.14657-1.48386.07826-1.981.75769-3.96826-.02419-7.8588,1.19252-11.85465.72994.94734-2.57138.79779-5.25154.71834-7.90641-.07385-2.46844-.08983-4.86565,2.3389-6.50137-1.672-.633-3.282.26771-4.51925-.89814,6.7521.07932,13.50323.93129,20.25669-.09862,3.3763-.5149,6.77754-.869,10.16753-1.29587,1.26434,2.13887.46216,4.48868.707,6.73142C182.83142,491.32437,182.15488,492.86222,183.42227,494.04971Z" transform="translate(-17.38579 -268.20089)" fill="#e62e20"/>
    <path d="M227.84072,413.94265c-.90328-1.11613-1.78605-1.73822-3.3806-.90014-2.57,1.35082-5.33671,2.33173-7.9224,3.65652-1.39215.71327-2.441.87447-3.37612-.52653a166.3516,166.3516,0,0,0,7.45146-28.65209c.92455,2.08184,1.8594,2.66123,3.96921.87074,1.96971-1.67165,4.52793-2.66252,6.60415-3.8279,1.61221.70975.78921,2.30634,1.84327,2.9248q.04857,1.10162.09659,2.20325l.0048.74486a13.90541,13.90541,0,0,0-.71873,5.1583,10.67978,10.67978,0,0,0-.84866,5.09945Q229.70222,407.3183,227.84072,413.94265Z" transform="translate(-17.38579 -268.20089)" fill="#e84b1e"/>
    <path d="M233.02939,387.488c-1.05376-.61844-.23076-2.215-1.843-2.92478-2.07622,1.16538-4.63444,2.15625-6.60415,3.8279-2.10981,1.79049-3.04466,1.2111-3.96921-.87074a185.85369,185.85369,0,0,0,.519-22.57929c.06-.48128.1202-.963.26136-2.09249.88683,1.1278.24616,2.4077,1.38538,3.07793,3.79413-3.79627,9.17214-4.52382,14.04588-6.38706,1.39065,1.73044.7228,4.21691,2.21159,5.91125l.26458.08235.2772-.00736q-.24719.70131-.49432,1.40261c.00077,3.94953,1.81882,7.7269,1.22258,12.49036-2.25047-4.30952-3.33515-8.553-6.74581-11.38189.59952,4.1158.06446,8.13767.33212,12.12924Q233.46071,383.82688,233.02939,387.488Z" transform="translate(-17.38579 -268.20089)" fill="#e8441e"/>
    <path d="M33.86661,386.86322c-2.47319-2.75006-5.72936-4.15845-9.16884-5.25288.38449-6.38635,2.79717-12.29077,4.4478-18.37613q1.85075-4.78136,3.70129-9.563l.032.02942c4.05791,2.94171,9.31483,4.045,12.648,8.098A145.13476,145.13476,0,0,0,33.86661,386.86322Z" transform="translate(-17.38579 -268.20089)" fill="#e63020"/>
    <path d="M151.549,484.60294c1.23729,1.16585,2.84721.26513,4.51925.89814-2.42873,1.63572-2.41275,4.03293-2.3389,6.50137.07945,2.65487.229,5.335-.71838,7.90654q-5.19394.02085-10.38789.04115c-.75764-.18205-1.63283.30435-2.36588-.40024.32209-.38093.61792-.73076.91373-1.08059,3.07753-.33886,5.77846-1.5978,9.08951-3.45288-3.09921.21728-5.3927.37809-7.68566.53858q-6.63711-.3541-13.2753-.70755l-3.72371-.12751c.06892-.231.113-.65306.21028-.66548,5.42265-.69289,4.11608-4.77813,4.2414-8.1657.07073-1.91287-.43014-3.90546.70487-5.69206C137.48416,482.53263,144.58386,483.25565,151.549,484.60294Z" transform="translate(-17.38579 -268.20089)" fill="#e6391f"/>
    <path d="M81.11368,313.30982,69.38589,320.7373c1.46421-4.70923,4.06631-8.03132,7.28843-11.9547-4.51908,1.94969-7.2142,5.04678-10.44225,7.382-.32984-.68524-.65-1.45571.26455-1.87435,5.0069-2.29178,2.34221-6.12375,2.40989-9.74055-3.69337,1.0278-5.41272,4.30038-8.51806,5.38059-.80735-1.37225-1.53394-2.60722-2.26053-3.84218a51.8266,51.8266,0,0,1,9.65634-7.41137c1.01318,1.17684.1167,3.25527,2.35649,4.26,1.22519-1.6093,3.78734-1.55093,5.00782-3.59985l5.177-2.27382c.00051,2.32124-.15436,4.65531.03965,6.96056C80.62565,307.118,79.42485,310.33414,81.11368,313.30982Z" transform="translate(-17.38579 -268.20089)" fill="#f8ad16"/>
    <path d="M233.89283,380.16622c-.2679-3.99173.26716-8.0136-.33236-12.1294,3.41066,2.82884,4.49534,7.07237,6.74581,11.38189.59624-4.76346-1.22181-8.54083-1.22287-12.49047,1.85553.25652,1.30236,1.725,1.46647,2.84326.68043,4.63624,2.36158,6.25474,7.23382,6.85766.20516-3.27234.49753-6.52306-.58963-9.71258q.00016-.36695-.00034-.73392c1.09343-.10318,2.02,1.04738,3.2223.404l1.116-2.58044c.03425,3.7377,2.26114,7.17318,1.54621,11.01405-.406.578-.812,1.1561-1.19257,1.698-1.17372.10275-1.81447-1.33086-3.1843-.94492V386.033q-.02479,1.4537-.04959,2.90743Q241.2723,384.55332,233.89283,380.16622Z" transform="translate(-17.38579 -268.20089)" fill="#f9af16"/>
    <path d="M233.64333,347.15659q-3.60759-5.917-7.21522-11.834c-.859-1.55788-1.71794-3.11579-2.99326-5.42887a13.953,13.953,0,0,1,7.44983,5.40012c3.58221,3.50958,8.27681,5.05243,12.56872,7.322.48765-.83936-.18453-1.73359.73539-2.12986a34.47625,34.47625,0,0,1,3.66052,9.55391c-1.51323,2.52625-2.79459,2.2115-5.18926.5268C240.11492,348.77613,237.58072,345.77941,233.64333,347.15659Z" transform="translate(-17.38579 -268.20089)" fill="#f0821a"/>
    <path d="M142.62311,499.95043q5.19389-.02065,10.38782-.04144c3.99589.46245,7.88643-.75426,11.85469-.73007,2.16914,1.08867.09791,1.65813-.40361,1.9669-2.40041,1.478-4.90558,2.789-7.28621,4.111-.32673,1.64025,1.568,1.06437,1.758,2.06188a77.564,77.564,0,0,1-26.79921.726c7.1253,1.31033,11.35855-3.91416,17.04711-6.90785C146.68867,500.08758,144.42258,501.47786,142.62311,499.95043Z" transform="translate(-17.38579 -268.20089)" fill="#eb621d"/>
    <path d="M108.36926,490.38866q.43712.3743.87427.74835c.97291,3.20887-2.5887,3.57982-3.77519,5.60356,1.96179,2.04834,5.16357,1.45731,7.77647,4.20461-3.94936-1.599-3.27232,1.73307-4.71544,2.63787a52.27709,52.27709,0,0,1-13.62585-5.01485c.93574-1.14286,1.87107-2.286,2.98913-3.65255-.95515-.564-1.84266-1.088-2.73021-1.612,2.3163-4.471,4.70593-5.40477,9.08709-3.59454C105.55915,490.25021,106.83551,491.12467,108.36926,490.38866Z" transform="translate(-17.38579 -268.20089)" fill="#f7a617"/>
    <path d="M142.57422,495.5553c2.29348-.16078,4.587-.32159,7.68618-.53887-3.311,1.85508-6.012,3.114-9.0898,3.4527-3.93081.7065-6.574,3.99594-10.20094,5.11519-2.40024.74072-2.71275,4.12983-5.64529,3.75715a22.53446,22.53446,0,0,1-8.02187-1.49981c.71035-.09183,1.88473.07239,1.962-.61271.34461-3.05663,3.15409-3.29308,4.95236-4.743,1.70378-1.3738,4.65938-1.3592,5.05849-4.24009C133.70079,495.87394,138.20975,497.08069,142.57422,495.5553Z" transform="translate(-17.38579 -268.20089)" fill="#f0821a"/>
    <path d="M49.99962,333.15232c-2.80608,5.17749-5.61215,10.355-8.75278,16.1498-.60508-4.08775.65642-7.15921,1.28221-10.311-1.13734-3.90088-.63089-7.91116-.79591-11.87619-.04194-1.0079-.99942-1.33657-1.42915-2.05025,1.12873-1.57964,1.99935-3.36324,3.64768-4.53227,2.185.29331,3.32526,1.26665,3.05235,3.71122-.23976,2.14758.061,4.34929-.07882,6.51431C46.76837,333.1876,47.89674,333.71406,49.99962,333.15232Z" transform="translate(-17.38579 -268.20089)" fill="#ef7d1a"/>
    <path d="M49.99962,333.15232c-2.10288.56174-3.23125.03528-3.07442-2.39437.13977-2.165-.16094-4.36673.07882-6.51431.27291-2.44457-.86732-3.41791-3.05235-3.71122,1.34437-1.831,2.50252-3.82088,4.45932-5.12889,1.85588,1.95629,2.96776-1.74474,4.9064-.55725.65027,1.86647-2.78217,2.80814-1.60622,4.264,1.82413,2.25834,1.48531,5.05007,2.66013,7.39515-.01677,1.23216-2.27375,1.4366-1.43133,3.06292q-.72033,1.04554-1.43984,2.0912Q50.75067,332.406,49.99962,333.15232Z" transform="translate(-17.38579 -268.20089)" fill="#f1881a"/>
    <path d="M125.32437,507.34147c2.93254.37268,3.24505-3.01643,5.64529-3.75715,3.627-1.11925,6.27013-4.40869,10.20094-5.11519-.29552.35-.59135.69984-.91344,1.08077.733.70459,1.60824.21819,2.36588.40022,1.79954,1.52774,4.06563.13746,6.55866,1.1867-5.68856,2.99369-9.92181,8.21818-17.04711,6.90785C129.85676,507.8835,127.503,508.445,125.32437,507.34147Z" transform="translate(-17.38579 -268.20089)" fill="#ee751c"/>
    <path d="M58.12792,306.08812c.72659,1.235,1.45318,2.46993,2.26053,3.84218,3.10534-1.08021,4.82469-4.35279,8.51806-5.38059-.06768,3.6168,2.597,7.44877-2.40989,9.74055-.91458.41864-.59439,1.18911-.26455,1.87435l-.20648.0938-.22614-.02882c-1.88629-.23534-2.58283,1.629-3.999,2.22252-1.65009-2.01941.27989-5.02176-1.72725-7.00321-2.13811.87221-2.88611,3.18536-6.12477,4.14558,2.57234-2.52836,1.32354-4.28254.38492-6.0768A10.69631,10.69631,0,0,1,58.12792,306.08812Z" transform="translate(-17.38579 -268.20089)" fill="#f6a118"/>
    <path d="M108.52937,503.58305c1.44312-.9048.76608-4.23686,4.71544-2.63787-2.6129-2.7473-5.81468-2.15627-7.77647-4.20461,1.18649-2.02374,4.7481-2.39469,3.77519-5.60356q1.13824.36506,2.27651.72964c2.65306,1.934,6.10593,1.43214,8.92032,2.875.80161,3.013-3.37827,2.29425-3.50264,3.72283.02753,2.07661,1.60814,1.78211,1.91823,2.80939-2.09268.42146-4.30253-.35693-6.52315.64322,1.12214,1.47455,3.26972,1.07014,3.86933,3.02712l-1.956.18637A13.08772,13.08772,0,0,1,108.52937,503.58305Z" transform="translate(-17.38579 -268.20089)" fill="#f4991b"/>
    <path d="M54.33335,309.51768c.93862,1.79426,2.18742,3.54844-.38492,6.0768,3.23866-.96022,3.98666-3.27337,6.12477-4.14558,2.00714,1.98145.07716,4.9838,1.72717,7.003q-3.71462,4.02654-7.42907,8.05352c-1.17482-2.34508-.836-5.13681-2.66013-7.39515-1.176-1.45586,2.25649-2.39753,1.60622-4.264-1.93864-1.18749-3.05052,2.51354-4.9064.55725A36.19715,36.19715,0,0,1,54.33335,309.51768Z" transform="translate(-17.38579 -268.20089)" fill="#f4961b"/>
    <path d="M229.34648,329.49471q-3.31385-5.17023-6.62766-10.34046c2.31857-.02084,4.0185,1.36936,5.905,2.42052,2.03008,1.13116,3.93665,2.91275,6.624,2.0148,2.00065,3.03977,4.36171,5.88669,5.20322,9.54659-2.22148,1.30039-3.62641-.588-5.30561-1.35462C233.25167,330.91691,231.79549,328.97772,229.34648,329.49471Z" transform="translate(-17.38579 -268.20089)" fill="#ec681d"/>
    <path d="M233.64333,347.15659c3.93739-1.37718,6.47159,1.61954,9.01672,3.4101,2.39467,1.6847,3.676,1.99945,5.18926-.5268a11.26422,11.26422,0,0,1,1.529,5.13227c-1.88859.54214-.92256,2.75492-2.18422,3.664v-.00081c-1.04376-1.76832-1.5157-3.93206-3.63-5.27335-.06412,1.53115,1.2525,2.74794.261,4.06561-2.10076.941-3.90059-3.28544-6.11747-.34986-1.07468-2.45-1.20484-5.30022-3.18062-7.36835Z" transform="translate(-17.38579 -268.20089)" fill="#f3901b"/>
    <path d="M229.34648,329.49471c2.449-.517,3.90519,1.4222,5.799,2.28683,1.6792.76662,3.08413,2.655,5.30561,1.35462a18.77647,18.77647,0,0,1,3.73761,7.34968c-.91987.39641-.24769,1.29064-.73534,2.13-4.29191-2.26953-8.98651-3.81238-12.56872-7.322C232.13908,332.90047,229.2761,331.57953,229.34648,329.49471Z" transform="translate(-17.38579 -268.20089)" fill="#ee741c"/>
    <path d="M235.24791,323.58957c-2.6874.898-4.594-.88364-6.624-2.0148-1.88654-1.05116-3.58647-2.44136-5.905-2.42052-2.31183-3.31191-5.59579-5.87945-7.44559-9.54535,3.558.6617,6.09769,3.33911,9.345,4.64563,1.58179.63642,3.05763,1.44223,4.83526,1.21392A41.82236,41.82236,0,0,1,235.24791,323.58957Z" transform="translate(-17.38579 -268.20089)" fill="#ea5a1d"/>
    <path d="M40.304,325.06469c.42973.71368,1.38721,1.04235,1.42915,2.05025.165,3.965-.34143,7.97531.79591,11.87619-1.84167.99277-3.68356,3.30764-5.24194,6.589-1.37926-1.60327-.56626-3.50851-.68516-5.26965-.16981-2.515.33326-5.143-1.62462-7.25422A34.40233,34.40233,0,0,1,40.304,325.06469Z" transform="translate(-17.38579 -268.20089)" fill="#ed701d"/>
    <path d="M114.24616,505.13059l1.956-.18637c-.59961-1.957-2.74719-1.55257-3.86933-3.02712,2.22062-1.00015,4.43047-.22176,6.52315-.64322-.31009-1.02728-1.8907-.73278-1.91823-2.80939.12437-1.42858,4.30425-.7098,3.50219-3.72261q2.17425.01565,4.34947.03075.39309-.02587.78628-.05223,1.86195.06308,3.72365.12661-.01212.699-.024,1.39882c-.39911,2.88089-3.35471,2.86629-5.05849,4.24009-1.79827,1.45-4.60775,1.6864-4.95236,4.743-.07724.6851-1.25162.52088-1.962.61271C116.25523,505.72467,115.08043,506.146,114.24616,505.13059Z" transform="translate(-17.38579 -268.20089)" fill="#f28d1b"/>
    <path d="M34.97733,333.05622c1.95788,2.1112,1.45481,4.73925,1.62462,7.25422.1189,1.76114-.6941,3.66638.68516,5.26965q-2.2045,4.05978-4.40843,8.12045l-.03166-.029c-2.33274-4.12016-.7025-8.88737-2.18537-13.14653A25.167,25.167,0,0,1,34.97733,333.05622Z" transform="translate(-17.38579 -268.20089)" fill="#ec661d"/>
    <path d="M61.75533,496.42189c-.54791-2.69077,1.08479-4.91072,1.6198-7.368,2.6144-5.10049,2.02809-10.90727,3.64872-16.22682.35775-.739.71548-1.4781,1.18515-2.44838,2.39736,1.89511,4.66708,3.68933,6.93682,5.48353.39914.82431.2334,1.27568-.78406,1.30091a2.04546,2.04546,0,0,0-2.18948,2.18522c-1.11048-.34225-1.9773-1.44981-3.29138-1.08243-.8021,2.43239-1.75211,4.77808-2.32056,7.21128-.433,1.85335-2.18909,3.508-1.04164,5.64778Z" transform="translate(-17.38579 -268.20089)" fill="#ffe30a"/>
    <path d="M30.66165,340.525c1.48287,4.25916-.14737,9.02637,2.18536,13.14653q-1.85083,4.78114-3.70144,9.56271c-1.4601-1.84472-.61553-3.984-.68584-5.97472-.10627-3.0086.18205-6.04173-1.54223-8.75521A26.00683,26.00683,0,0,1,30.66165,340.525Z" transform="translate(-17.38579 -268.20089)" fill="#ea5b1d"/>
    <path d="M268.09247,404.28932q-1.10518.0771-2.2113.154c-6.28992-.74337-12.17946,1.53216-18.37108,2.65536.16732-1.34285.2983-2.39378.42923-3.4447,1.15792-.72208.43949-2.04275,1.1801-3.392,1.141,3.22192,2.5172-.68372,3.879.43663-.07275,1.50709.25285,2.39552,2.178,2.27963a90.72314,90.72314,0,0,1,9.07906.02119C265.60763,403.05382,267.25227,402.60129,268.09247,404.28932Z" transform="translate(-17.38579 -268.20089)" fill="#f1e100"/>
    <path d="M80.33141,291.22381a27.65226,27.65226,0,0,1,7.42013-3.59226c2.38393-.413,2.76422,2.22127,4.44888,2.87151q-.00838.35744-.01642.71505a4.36016,4.36016,0,0,0-2.9638,1.42737,4.7218,4.7218,0,0,0-3.703,1.5357l-3.703,1.45877C79.14155,294.88593,80.81689,292.69874,80.33141,291.22381Z" transform="translate(-17.38579 -268.20089)" fill="#f9e81c"/>
    <path d="M79.52151,490.3888a33.61673,33.61673,0,0,1-8.174-5.69654c.01251-2.0056,2.2855-1.87827,3.05046-3.17351q1.47931.753,2.95867,1.5053,2.22269,1.47449,4.44539,2.949.75338.71475,1.50676,1.4295C82.562,489.03994,81.02393,489.69217,79.52151,490.3888Z" transform="translate(-17.38579 -268.20089)" fill="#fae81c"/>
    <path d="M252.9984,400.69864c-1.36178-1.12035-2.738,2.78529-3.879-.43663-.74061,1.34924-.02218,2.66991-1.18014,3.392l-.01951-.73846q.00118-1.47362.00246-2.947.35253-2.947.70481-5.89446.03861-.70932.07718-1.4186c1.25576-.722.13926-2.404,1.21679-3.14548,4.2657.49972,2.92608,3.80746,3.31177,6.24274Z" transform="translate(-17.38579 -268.20089)" fill="#f9e81e"/>
    <path d="M92.2005,290.50314c-1.68474-.65032-2.065-3.28462-4.449-2.87159.93422-.5072,1.86848-1.0144,2.838-1.54073-1.86931-3.51143-3.661-6.87711-5.45238-10.24259,3.29587,2.01469,4.73727,5.79406,7.79284,8.037.756,1.86669,3.23356,2.525,3.51368,4.78007C95.27628,289.96764,93.67416,290.09221,92.2005,290.50314Z" transform="translate(-17.38579 -268.20089)" fill="#f2e400"/>
    <path d="M74.398,481.51839c-.765,1.2956-3.03795,1.16827-3.05046,3.17387-1.26681-.63507-1.8575-.06638-2.46753,1.0714-.99381,1.85362-2.22822,3.58061-3.36117,5.36117-1.14755-2.1397.60855-3.7943,1.04154-5.64765.56845-2.4332,1.51846-4.77889,2.32056-7.21128,1.31408-.36738,2.1809.74018,3.29133,1.08239Q73.28507,480.43333,74.398,481.51839Z" transform="translate(-17.38579 -268.20089)" fill="#f4e100"/>
    <path d="M253.23276,395.7528c-.38567-2.43528.95395-5.743-3.31175-6.24274-1.07753.74148.039,2.42348-1.21706,3.14528q-.02634-1.85763-.05219-3.7149.02481-1.45369.04936-2.9075c1.30048-.77238.08872-2.59629,1.45235-3.41283,1.24046.26453,2.16383,1.51328,3.59072,1.21709C253.68655,387.81382,254.51321,391.8277,253.23276,395.7528Z" transform="translate(-17.38579 -268.20089)" fill="#ffda07"/>
    <path d="M253.74419,383.8372c-1.42689.29619-2.35026-.95256-3.59072-1.21709-1.36363.81654-.15187,2.64045-1.45235,3.41283q.00034-5.12923.00023-10.25954c1.36983-.38594,2.01058,1.04767,3.1843.94492.38057-.5419.78656-1.12,1.19257-1.698A25.6287,25.6287,0,0,1,253.74419,383.8372Z" transform="translate(-17.38579 -268.20089)" fill="#fdc608"/>
    <path d="M80.33141,291.22381c.48548,1.47493-1.18986,3.66212,1.4827,4.41614q-.74433.71154-1.48856,1.42308-2.58849,1.13693-5.17708,2.27355c-1.66185-1.11941.403-3.4821-1.53291-4.50974A29.7922,29.7922,0,0,1,80.33141,291.22381Z" transform="translate(-17.38579 -268.20089)" fill="#fedb09"/>
    <path d="M73.61556,294.82684c1.93593,1.02764-.12894,3.39033,1.53291,4.50974-1.22038,2.0492-3.78253,1.99083-5.00772,3.60013-2.23979-1.00469-1.34331-3.08312-2.35649-4.26Q70.70032,296.75164,73.61556,294.82684Z" transform="translate(-17.38579 -268.20089)" fill="#fdca08"/>
    <path d="M251.532,364.00627l-1.116,2.58044c-1.20228.64333-2.12887-.50723-3.22228-.404-.29491-2.44912-3.26547-4.89835.00032-7.34731v.00079c-.05591,2.826,2.71936,1.021,3.6691,2.202A3.76376,3.76376,0,0,1,251.532,364.00627Z" transform="translate(-17.38579 -268.20089)" fill="#f7a517"/>
    <path d="M95.16246,493.30359c.88753.524,1.775,1.0481,2.73019,1.61206-1.11806,1.36653-2.05339,2.50969-2.98913,3.65255a21.01883,21.01883,0,0,1-6.42506-3.05952,7.46911,7.46911,0,0,0,4.43718-2.91607Z" transform="translate(-17.38579 -268.20089)" fill="#fbbf0d"/>
    <path d="M79.52151,490.3888c1.50242-.69663,3.04049-1.34886,3.78714-2.98606q1.10459.38081,2.20941.76112,1.48771,1.09518,2.97541,2.19036a10.53573,10.53573,0,0,1-3.879,3.02387A15.36932,15.36932,0,0,1,79.52151,490.3888Z" transform="translate(-17.38579 -268.20089)" fill="#fedd08"/>
    <path d="M263.46432,420.3708a37.645,37.645,0,0,1-10.60159,4.57991C255.57152,421.75527,257.75586,417.40834,263.46432,420.3708Z" transform="translate(-17.38579 -268.20089)" fill="#e24a1d"/>
    <path d="M50.234,472.418c3.91644,9.07658,3.17868,8.401-1.04206,12.31687C49.552,480.25849,50.17635,476.35052,50.234,472.418Z" transform="translate(-17.38579 -268.20089)" fill="#e44a1d"/>
    <path d="M100.58506,268.20089c3.33873,2.14063,6.54708,3.93338,9.50405,6.63832C103.91259,275.01055,101.95968,273.65324,100.58506,268.20089Z" transform="translate(-17.38579 -268.20089)" fill="#e64d1d"/>
    <path d="M84.61448,493.37809a10.53583,10.53583,0,0,0,3.87891-3.02374c1.79452.12449,3.00041,1.39084,4.42225,2.23826a7.46911,7.46911,0,0,1-4.43718,2.91607A8.69533,8.69533,0,0,1,84.61448,493.37809Z" transform="translate(-17.38579 -268.20089)" fill="#fed006"/>
    <path d="M92.92989,283.88524c-3.0555-2.243-4.4969-6.02232-7.79277-8.037a1.72439,1.72439,0,0,1-.39774-1.90457c3.46644,1.583,5.07245,5.21937,8.14131,7.24q.67175,1.01323,1.34345,2.029Z" transform="translate(-17.38579 -268.20089)" fill="#fed10a"/>
    <path d="M250.86317,361.03818c-.94974-1.18106-3.725.624-3.6691-2.202,1.26166-.90906.29563-3.12184,2.18422-3.664A14.2256,14.2256,0,0,1,250.86317,361.03818Z" transform="translate(-17.38579 -268.20089)" fill="#f59b1b"/>
    <path d="M120.38129,294.15946a4.69154,4.69154,0,0,0-2.69756,1.19637c.60217,1.714,2.44412,1.98267,3.4504,3.13459q-3.61105-.37-7.222-.74018a49.09255,49.09255,0,0,0-11.98119-1.44293c-2.25676-1.46663-5.112.29955-7.338-1.33366,2.45911-.96615,4.88752-2.02146,7.38825-2.86675,1.63594-.553,1.35346-1.32735.602-2.34766,2.31735-2.26551,1.25355-5.4445,2.222-8.07442,4.87749,2.924,10.80953,3.39857,15.575,6.58306Q120.38068,291.21394,120.38129,294.15946Z" transform="translate(-17.38579 -268.20089)" fill="#ec691d"/>
    <path d="M101.93089,296.30731a49.05324,49.05324,0,0,1,11.98008,1.44343c-.82871.07278-1.65632.145-3.28548.28732,2.48683.67532.09807,3.2985,2.56209,3.58193q-6.36171,1.81369-12.72383,3.6272c-.46692-.171-.68181-.14124-.80424-.97623-.38565-2.63021,1.44118-5.74669-1.50211-7.8764Z" transform="translate(-17.38579 -268.20089)" fill="#fce81a"/>
    <path d="M80.32555,297.063q.74424-.71154,1.48856-1.42308,1.85157-.72939,3.70308-1.45887.04776,8.482.09542,16.96428-.0612.32186-.14641.63827-2.17671.76279-4.35266,1.526c-1.68869-2.97553-.48789-6.19165-.74833-9.28607C80.1712,301.71835,80.32607,299.38428,80.32555,297.063Z" transform="translate(-17.38579 -268.20089)" fill="#fbbb10"/>
    <path d="M104.80524,281.68482c-.96848,2.62992.09532,5.80891-2.22206,8.07443-2.73372-2.24826-6.07042-3.74059-8.35929-6.54647q-.67153-1.0152-1.3432-2.02909c.18677-5.19457.30469-5.262,5.10133-2.88658Q101.39536,279.98753,104.80524,281.68482Z" transform="translate(-17.38579 -268.20089)" fill="#eb5e1d"/>
    <path d="M101.93089,296.30731q-1.88674.04362-3.7739.08705c-1.7891.28371-4.79195-.99485-4.926,1.639-.15581,3.06218-2.07877,6.66463,1.21792,9.378a8.50458,8.50458,0,0,1-3.687,1.48006c-1.49072-.068-1.76711-1.30858-1.8735-2.30122-.49874-4.65354-1.02921-9.32755.33171-13.94471a4.35928,4.35928,0,0,1,2.96389-1.4272c1.04212.75293.73035,1.87078.73939,2.87061.0126,1.39423.88937,1.00946,1.66945.88476C96.81886,296.60686,99.67413,294.84068,101.93089,296.30731Z" transform="translate(-17.38579 -268.20089)" fill="#ffd105"/>
    <path d="M120.38129,294.15946q-.00059-2.94564-.00109-5.89158c8.63853,2.03859,17.11792,4.71789,25.90318,6.398C137.63523,293.86819,129.005,294.21049,120.38129,294.15946Z" transform="translate(-17.38579 -268.20089)" fill="#ee751c"/>
    <path d="M94.449,307.41135c-3.29669-2.71334-1.37373-6.31579-1.21792-9.378.134-2.63387,3.13686-1.35531,4.926-1.639,2.9437,2.12992,1.11687,5.2464,1.50252,7.87661.12243.835.33732.80524.80424.97623A22.58142,22.58142,0,0,1,94.449,307.41135Z" transform="translate(-17.38579 -268.20089)" fill="#ffdc08"/>
    <path d="M89.2202,292.64548c-1.36092,4.61716-.83045,9.29117-.33171,13.94471.10639.99264.38278,2.2332,1.8735,2.30122q-2.57475,1.12668-5.14968,2.25351-.04723-8.48154-.09512-16.96384A4.72194,4.72194,0,0,1,89.2202,292.64548Z" transform="translate(-17.38579 -268.20089)" fill="#fec807"/>
    <path d="M113.18758,301.62c-2.464-.28344-.07526-2.90662-2.56209-3.58194,1.62916-.14227,2.45677-.21454,3.28548-.28732q3.61267.36936,7.22316.73968c.51254.33053,1.02506.66111,1.99755,1.28836Z" transform="translate(-17.38579 -268.20089)" fill="#f4e401"/>
    <path d="M75.14582,475.8622c-2.26974-1.7942-4.53946-3.58842-6.93682-5.48353-.46967.97028-.8274,1.70934-1.18539,2.44791-.23592-.74494.31662-1.66819-.78463-2.50594.78006,5.044-3.07724,5.35579-6.18522,6.64975-.666-.97254-.25892-2.19365-1.2302-2.77172.02035-6.2118-1.87938-12.19405-2.236-18.36086a5.70929,5.70929,0,0,0,4.44276-2.93323c1.18877.97681,1.69846,2.62879,3.98508,3.5104.34342-.52039.85736-1.29919,1.37079-2.07794q.99276,1.86738,1.98653,3.73465a78.15631,78.15631,0,0,0,6.09976,13.87754c.43053,1.00522.41257,2.20542,1.32915,2.9989Z" transform="translate(-17.38579 -268.20089)" fill="#ec681d"/>
    <path d="M74.47266,471.949A78.11934,78.11934,0,0,1,68.3729,458.0716c1.10064-1.58533,2.54673-1.54712,4.13027-.86325q.96024.7155,1.92052,1.43087,3.69753,3.72958,7.39506,7.45954C79.09843,467.714,75.863,468.6942,74.47266,471.949Z" transform="translate(-17.38579 -268.20089)" fill="#fbe91e"/>
    <path d="M58.82356,474.19867c.97128.57807.56417,1.79918,1.2302,2.77172,3.108-1.294,6.96528-1.60571,6.18522-6.64975,1.10125.83775.54871,1.761.78463,2.50594-1.62039,5.32-1.03408,11.1268-3.64848,16.22729-3.446.122-3.947-1.84677-3.88669-4.765C59.55782,480.93135,59.06959,477.56257,58.82356,474.19867Z" transform="translate(-17.38579 -268.20089)" fill="#ea5b1d"/>
    <path d="M61.03033,452.90458a5.70929,5.70929,0,0,1-4.44276,2.93323c-2.40131-7.831-3.94014-15.91657-6.95719-23.62895C53.33053,439.18443,56.76048,446.275,61.03033,452.90458Z" transform="translate(-17.38579 -268.20089)" fill="#ef7a1b"/>
    <path d="M72.50317,457.20835c-1.58354-.68387-3.02963-.72208-4.13027.86325q-.99376-1.86714-1.9867-3.73456-.59345-2.36023-1.18788-4.72036l.47962-.26129Z" transform="translate(-17.38579 -268.20089)" fill="#f4e000"/>
    <path d="M230.12818,426.42876c-.093-1.66664,1.9055-2.862,1.15076-4.67288-1.28676-.90473-2.35379.48489-3.52848.19723,3.59478-5.24035,8.09959-9.825,11.27591-15.36669a14.28043,14.28043,0,0,0,2.97771-4.39587c1.121.40583.661,1.41623.84876,2.1789.10173,2.492-1.92395,4.95555-.102,7.47066a11.2528,11.2528,0,0,0,5.08161,2.69875c1.30626.33593,2.28291.85152,2.33091,2.34749q-7.80171,6.23379-15.60308,12.46784A5.686,5.686,0,0,0,230.12818,426.42876Z" transform="translate(-17.38579 -268.20089)" fill="#ec681d"/>
    <path d="M239.02633,406.58642c-3.17628,5.54167-7.68109,10.12634-11.27587,15.36669-.80136.70035-1.60236,1.40084-2.87713,2.51565,1.10272-3.91154,2.035-7.21883,2.96739-10.52611q1.86147-6.62437,3.72315-13.24865C233.06721,403.88191,236.21519,405.02477,239.02633,406.58642Z" transform="translate(-17.38579 -268.20089)" fill="#fae81b"/>
    <path d="M250.16331,416.88635c-.048-1.496-1.02465-2.01156-2.33091-2.34749a11.25194,11.25194,0,0,1-5.08161-2.69886,46.92889,46.92889,0,0,1,12.60626-4.47151c1.17886,1.207,3.35729.85376,4.3764,3.07293C256.97621,413.04877,253.37014,414.7012,250.16331,416.88635Z" transform="translate(-17.38579 -268.20089)" fill="#eb5e1d"/>
    <path d="M255.35705,407.36847A46.92962,46.92962,0,0,0,242.75079,411.84c-1.8219-2.515.20378-4.97851.10166-7.47035.36165-.79965.72367-1.59948,1.09525-2.42041,1.34417.48258,2.36563,1.95857,3.97207.96635q.00974.36929.01953.73846c-.13091,1.05087-.26189,2.1018-.42921,3.44465,6.19162-1.1232,12.08116-3.39873,18.37108-2.65538Q260.62,405.90608,255.35705,407.36847Z" transform="translate(-17.38579 -268.20089)" fill="#ffdf0a"/>
    <path d="M230.12818,426.42876a5.686,5.686,0,0,1,4.43205,2.92543c-5.66314,4.8391-10.69689,10.29773-15.87022,15.695C222.63972,438.90032,226.55269,432.76524,230.12818,426.42876Z" transform="translate(-17.38579 -268.20089)" fill="#ef7b1b"/>
    <path d="M54.3713,326.50543q3.71451-4.02687,7.42907-8.05352c1.41625-.59328,2.11279-2.45766,3.99908-2.22232q-6.429,6.6693-12.8595,13.33869C52.09755,327.942,54.35453,327.73759,54.3713,326.50543Z" transform="translate(-17.38579 -268.20089)" fill="#f9e10c"/>
    <path d="M92.91564,492.59261c-1.42184-.84742-2.62773-2.11377-4.42225-2.23826q-1.48759-1.09536-2.97532-2.19051c4.25433-3.58359,9.6039-5.43656,14.04454-8.72576q.77244.22593,1.54492.45069c2.99346,1.61852,5.98682,3.23823,9.12768,4.93773-4.08448,2.34964-8.204-.0179-12.65526.53254,3.48152,2.61572,7.58222,2.91226,10.79032,5.02936-1.53476.73627-2.81112-.13819-4.12074-.6793-4.38116-1.81023-6.77079-.87648-9.08709,3.59454Q94.03906,492.9481,92.91564,492.59261Z" transform="translate(-17.38579 -268.20089)" fill="#f9af16"/>
    <path d="M124.78938,494.77265q-2.175-.01527-4.34947-.03077c-2.81394-1.44309-6.26681-.94126-8.91987-2.87523A34.36672,34.36672,0,0,1,124.78938,494.77265Z" transform="translate(-17.38579 -268.20089)" fill="#f9e40c"/>
    <path d="M75.14582,475.8622q.32789-.457.65619-.914c.68892.13313.98033,1.419,1.78565.8789,2.91739-1.95676,6.77231-2.60121,8.65936-6.0084,1.8599,1.3456,3.96259,2.40446,5.2804,4.38979a24.01437,24.01437,0,0,0-3.45005,1.76715c-3.462,2.52128-7.71176,3.86144-10.72074,7.04845q-1.47934-.75248-2.95868-1.5053-1.11288-1.08558-2.22572-2.17046a2.04551,2.04551,0,0,1,2.18953-2.18518C75.37922,477.13788,75.545,476.68651,75.14582,475.8622Z" transform="translate(-17.38579 -268.20089)" fill="#ffd405"/>
    <path d="M77.35663,483.02405c3.009-3.187,7.25873-4.52717,10.72074-7.04845a24.01437,24.01437,0,0,1,3.45005-1.76715,7.76308,7.76308,0,0,1,3.63334,2.1967,35.62092,35.62092,0,0,1-6.20966,4.2709c-2.54886,1.49442-5.60574,2.4329-7.14908,5.297Q79.57933,484.49852,77.35663,483.02405Z" transform="translate(-17.38579 -268.20089)" fill="#fec608"/>
    <path d="M81.802,485.973c1.54334-2.86407,4.60022-3.80255,7.14908-5.297a35.62092,35.62092,0,0,0,6.20966-4.2709c1.75533.60045,2.99736,1.93254,4.40218,3.03252-4.441,3.28961-9.79054,5.14258-14.04487,8.72617q-1.10478-.3804-2.20942-.7611Q82.55546,486.68768,81.802,485.973Z" transform="translate(-17.38579 -268.20089)" fill="#fbbb10"/>
    <path d="M86.247,469.81866c-1.88705,3.40719-5.742,4.05164-8.65936,6.0084-.80532.5401-1.09673-.74577-1.78565-.8789-.91695-.79351-.899-1.99371-1.32952-2.99893,1.39049-3.255,4.62594-4.23522,7.34627-5.85047Q84.03287,467.95864,86.247,469.81866Z" transform="translate(-17.38579 -268.20089)" fill="#ffe009"/>
    <path d="M234.527,349.9094c1.97578,2.06813,2.10594,4.91836,3.17994,7.369.80378,2.66686,1.60224,5.334,1.32927,8.17234-1.48879-1.69434-.82094-4.18081-2.21159-5.91125C236.81922,356.15131,234.16382,353.38387,234.527,349.9094Z" transform="translate(-17.38579 -268.20089)" fill="#f9de0c"/>
    <path d="M247.91977,402.91559c-1.60644.99222-2.6279-.48377-3.97207-.96635-.37158.82093-.7336,1.62076-1.09525,2.42041-.1874-.76287.27259-1.77327-.84837-2.1791-2.11664-3.74133-6.54546-4.18187-9.59173-6.59609a13.90776,13.90776,0,0,1,.71862-5.15832c2.06968-.28242,3.48675,1.17859,4.87928,2.17074,3.34819,2.38556,8.16074,2.88382,9.91185,7.3615Q247.92095,401.442,247.91977,402.91559Z" transform="translate(-17.38579 -268.20089)" fill="#ffd405"/>
    <path d="M248.65176,388.94044q.026,1.85736.05221,3.7149-.03819.7096-.07643,1.41916c-4.94912-2.72492-9.8987-5.4502-14.75154-8.1222-.41016.9568.56387,2.576-.74972,3.739q-.04814-1.10163-.09659-2.20325.431-3.66109.8629-7.322Q241.27241,384.55343,248.65176,388.94044Z" transform="translate(-17.38579 -268.20089)" fill="#fcbd0f"/>
    <path d="M232.41235,395.59446c3.04627,2.41422,7.47509,2.85476,9.59173,6.59609a14.28043,14.28043,0,0,1-2.97771,4.39587c-2.81118-1.56165-5.95916-2.70451-7.46252-5.89242A10.67793,10.67793,0,0,1,232.41235,395.59446Z" transform="translate(-17.38579 -268.20089)" fill="#ffe009"/>
    <path d="M233.12628,389.6913c1.31359-1.163.33956-2.7822.74972-3.739,4.85284,2.672,9.80242,5.39728,14.75152,8.1222q-.353,2.9468-.70529,5.8941c-1.75124-4.4779-6.56379-4.97616-9.912-7.36172-1.39253-.99215-2.8096-2.45316-4.87928-2.17074Q233.12872,390.06375,233.12628,389.6913Z" transform="translate(-17.38579 -268.20089)" fill="#fec708"/>
    <path d="M239.03624,365.45075c.273-2.83834-.52549-5.50548-1.32927-8.17234,2.21756-2.93624,4.01739,1.29018,6.11815.3492.99148-1.31767-.32514-2.53446-.261-4.06561,2.11427,1.34129,2.58621,3.505,3.63,5.27335-3.26579,2.449-.29523,4.89819-.00032,7.34731q.00048.36695.00032.73392a5.10963,5.10963,0,0,1-3.98868-1.181,2.8184,2.8184,0,0,0-3.62737-.20985l-.2772.00736Z" transform="translate(-17.38579 -268.20089)" fill="#f59b1b"/>
    <path d="M239.578,365.52574a2.8184,2.8184,0,0,1,3.62737.20985,5.10963,5.10963,0,0,0,3.98868,1.181c1.08716,3.18952.79479,6.44024.58963,9.71258-4.87224-.60292-6.55339-2.22142-7.23382-6.85766-.16411-1.11827.38906-2.58674-1.46647-2.84326Q239.331,366.22711,239.578,365.52574Z" transform="translate(-17.38579 -268.20089)" fill="#f7a517"/>
    <path d="M129.27532,496.24583q.01194-.69961.024-1.39882,6.63813.3543,13.27543.708C138.20975,497.08069,133.70079,495.87394,129.27532,496.24583Z" transform="translate(-17.38579 -268.20089)" fill="#f7a418"/>
    <path d="M94.59293,294.97365c-.78008.1247-1.65685.50947-1.66945-.88476-.009-.99983.30273-2.11768-.73939-2.87061q.008-.35782.01633-.71522c1.47374-.41085,3.07586-.53542,4.24322-1.83777-.28012-2.255-2.75765-2.91338-3.51368-4.78008l1.29418-.67255c2.28862,2.806,5.62532,4.29833,8.359,6.54659.75146,1.0203,1.03394,1.79468-.602,2.34765C99.48045,292.95219,97.052,294.0075,94.59293,294.97365Z" transform="translate(-17.38579 -268.20089)" fill="#ffdc08"/>
  </g>
</svg>
