<svg xmlns="http://www.w3.org/2000/svg" xml:space="preserve" width="1.70666in" height="1.70666in" version="1.1" style="shape-rendering:geometricPrecision; text-rendering:geometricPrecision; image-rendering:optimizeQuality; fill-rule:evenodd; clip-rule:evenodd" viewBox="0 0 1707 1707" xmlns:xlink="http://www.w3.org/1999/xlink">
 <defs>
  <style type="text/css">
   
    .fil0 {fill:black}
   
  </style>
 </defs>
 <g id="Layer_x0020_1">
  <metadata id="CorelCorpID_0Corel-Layer"></metadata>
  <path class="fil0" d="M640 962c-27,0 -37,-36 -13,-50 25,-14 57,-41 74,-12 16,30 -23,44 -47,58 -5,3 -9,4 -14,4zm334 745l-242 0c-11,0 -22,-8 -25,-19l-62 -208c-30,-9 -59,-22 -88,-36l-190 103c-10,5 -23,4 -32,-5l-171 -171c-8,-8 -10,-21 -4,-31l102 -191c-14,-28 -26,-57 -36,-87l-207 -62c-11,-4 -19,-14 -19,-26l0 -242c0,-11 8,-22 19,-25l207 -62c10,-30 22,-59 36,-88l-102 -190c-6,-10 -4,-23 4,-32l171 -171c9,-8 22,-10 32,-4l190 102c29,-14 58,-26 88,-36l62 -207c3,-11 14,-19 25,-19l242 0c12,0 22,8 26,19l62 207c30,10 59,22 87,36l191 -102c10,-6 23,-4 31,4l171 171c9,9 10,22 5,32l-103 190c14,29 27,58 36,88l208 62c11,3 19,14 19,25l0 242c0,12 -8,22 -19,26l-208 62c-10,30 -22,59 -36,87l103 191c5,10 4,23 -5,31l-171 171c-8,9 -21,10 -31,5l-191 -103c-28,14 -57,27 -87,36l-62 208c-4,11 -14,19 -26,19zm-222 -54l202 0 61 -201c2,-9 9,-16 18,-18 35,-11 71,-26 104,-44 8,-4 17,-4 25,1l186 99 142 -142 -99 -186c-5,-8 -5,-17 -1,-25 18,-33 33,-69 44,-104 2,-9 9,-16 18,-18l201 -61 0 -202 -201 -60c-9,-3 -16,-9 -18,-18 -11,-36 -26,-71 -44,-104 -4,-8 -4,-18 1,-25l99 -186 -142 -143 -186 100c-8,4 -17,4 -25,0 -33,-18 -69,-32 -104,-43 -9,-3 -16,-9 -18,-18l-61 -202 -202 0 -60 202c-3,9 -9,15 -18,18 -36,11 -71,25 -104,43 -8,4 -18,4 -25,0l-186 -100 -143 143 100 186c4,7 4,17 0,25 -18,33 -32,68 -43,104 -3,9 -9,15 -18,18l-202 60 0 202 202 61c9,2 15,9 18,18 11,35 25,71 43,104 4,8 4,17 0,25l-100 186 143 142 186 -99c7,-5 17,-5 25,0 33,17 68,32 104,43 9,2 15,9 18,18l60 201zm101 -305c-272,0 -494,-222 -494,-495 0,-272 222,-494 494,-494 273,0 495,222 495,494 0,273 -222,495 -495,495zm0 -936c-243,0 -441,198 -441,441 0,243 198,441 441,441 243,0 441,-198 441,-441 0,-243 -198,-441 -441,-441zm-201 637c-122,0 -166,-164 -60,-225l151 -87 140 -232c20,-32 67,-20 85,11l51 89c39,-19 87,-4 109,34 16,28 31,49 21,86 -5,19 -17,36 -33,47l51 89c18,31 5,78 -33,78l-271 7 -40 23 76 137c18,31 9,67 -20,84 -29,16 -66,48 -84,17l-97 -167c-14,6 -30,9 -46,9zm84 -247l68 116c13,-7 39,-25 51,-26l265 -6 -198 -342 -137 226c-6,10 -35,24 -49,32zm41 194l-32 18 83 143c22,-13 31,-14 25,-25l-76 -136zm-87 -167l-71 41c-59,34 -36,125 33,125 12,0 24,-3 34,-9l71 -41 -67 -116zm356 -177l43 73c21,-19 3,-42 -7,-60 -8,-12 -23,-18 -36,-13z" id="id_101" style="fill: rgb(98, 159, 244);"></path>
 </g>
</svg>